<svg id="Capa_1" enable-background="new 0 0 511.999 511.999" height="512" viewBox="0 0 511.999 511.999" width="512" xmlns="http://www.w3.org/2000/svg"><g><path d="m362.826 256-315.342 244.63c-12.075-9.443-20.209-24.112-20.209-41.601v-406.059c0-17.489 8.134-32.157 20.209-41.588z" fill="#9dc6fb"/><path d="m458.273 301.805-76.301 44.056-66.878-8.363-22.971-81.499 11.666-78.027 78.183-11.822 76.301 44.043c35.267 20.36 35.267 71.252 0 91.612z" fill="#ffe07d"/><path d="m381.967 345.861-275.352 158.973c-20.12 11.609-43.099 8.322-59.127-4.205l244.63-244.63z" fill="#dd5790"/><path d="m381.967 166.149-89.849 89.85-244.63-244.618c16.028-12.541 39.007-15.827 59.127-4.218z" fill="#95d6a4"/><path d="m86.892 459.029c0 3.554.33 6.984.968 10.281l-40.373 31.318c-12.074-9.437-20.212-24.106-20.212-41.599v-406.059c0-17.482 8.139-32.152 20.212-41.589l40.373 31.318c-.639 3.296-.968 6.727-.968 10.271z" fill="#80b4fb"/><path d="m110.123 502.823-3.503 2.019c-20.12 11.6-43.103 8.314-59.133-4.213l39.446-39.446c.639 16.545 8.592 30.401 20.161 39.446h.01c.979.762 1.989 1.503 3.019 2.194z" fill="#da387d"/><path d="m107.105 11.381.01.021-.021-.021c-11.579 9.045-19.522 22.912-20.161 39.446l-39.445-39.446c16.029-12.537 39.013-15.823 59.132-4.213l3.503 2.019c-1.03.69-2.04 1.432-3.018 2.194z" fill="#78c2a4"/></g></svg>